<mxfile host="65bd71144e">
    <diagram id="Efh4c-zIfxgfzbKXJ6FO" name="Page-1">
        <mxGraphModel dx="277" dy="1266" grid="1" gridSize="10" guides="1" tooltips="1" connect="1" arrows="1" fold="1" page="1" pageScale="1" pageWidth="1169" pageHeight="827" background="#FFFFFF" math="0" shadow="0">
            <root>
                <mxCell id="0"/>
                <mxCell id="1" parent="0"/>
                <mxCell id="403" value="ServerHandler" style="shape=folder;fontStyle=1;tabWidth=110;tabHeight=30;tabPosition=left;html=1;boundedLbl=1;labelInHeader=1;container=1;collapsible=0;rounded=0;shadow=0;glass=0;labelBorderColor=none;sketch=0;strokeColor=#0D0D0D;fontColor=#0D0D0D;fillColor=#FFFFCC;gradientColor=none;" vertex="1" parent="1">
                    <mxGeometry x="880" y="-800" width="480" height="600" as="geometry"/>
                </mxCell>
                <mxCell id="404" value="" style="html=1;strokeColor=none;resizeWidth=1;resizeHeight=1;fillColor=none;part=1;connectable=0;allowArrows=0;deletable=0;rounded=0;shadow=0;glass=0;labelBorderColor=none;sketch=0;fontColor=#0D0D0D;" vertex="1" parent="403">
                    <mxGeometry width="480" height="420" relative="1" as="geometry">
                        <mxPoint y="30" as="offset"/>
                    </mxGeometry>
                </mxCell>
                <mxCell id="406" value="search_engine" style="shape=folder;fontStyle=1;tabWidth=110;tabHeight=30;tabPosition=left;html=1;boundedLbl=1;labelInHeader=1;container=1;collapsible=0;rounded=0;shadow=0;glass=0;labelBorderColor=none;sketch=0;strokeColor=#0D0D0D;fontColor=#0D0D0D;fillColor=#FFFFCC;gradientColor=none;" vertex="1" parent="403">
                    <mxGeometry x="50" y="309" width="390" height="271" as="geometry"/>
                </mxCell>
                <mxCell id="407" value="" style="html=1;strokeColor=none;resizeWidth=1;resizeHeight=1;fillColor=none;part=1;connectable=0;allowArrows=0;deletable=0;rounded=0;shadow=0;glass=0;labelBorderColor=none;sketch=0;fontColor=#0D0D0D;" vertex="1" parent="406">
                    <mxGeometry width="390" height="189.7" relative="1" as="geometry">
                        <mxPoint y="30" as="offset"/>
                    </mxGeometry>
                </mxCell>
                <mxCell id="365" value="&amp;lt;&amp;lt;Socket&amp;gt;&amp;gt;&lt;br&gt;&lt;b&gt;SocketServer&lt;/b&gt;" style="swimlane;fontStyle=0;align=center;verticalAlign=middle;childLayout=stackLayout;horizontal=1;startSize=40;horizontalStack=0;resizeParent=1;resizeParentMax=0;resizeLast=0;collapsible=0;marginBottom=0;html=1;strokeColor=#666666;fontColor=#5E5E5E;fillColor=#FFFFCC;" vertex="1" parent="403">
                    <mxGeometry x="100" y="50" width="300" height="228" as="geometry"/>
                </mxCell>
                <mxCell id="366" value="- SE: SearchEngine" style="text;html=1;strokeColor=none;fillColor=none;align=left;verticalAlign=middle;spacingLeft=4;spacingRight=4;overflow=hidden;rotatable=0;points=[[0,0.5],[1,0.5]];portConstraint=eastwest;fontColor=#5E5E5E;" vertex="1" parent="365">
                    <mxGeometry y="40" width="300" height="20" as="geometry"/>
                </mxCell>
                <mxCell id="367" value="- page_size: int = 10" style="text;html=1;strokeColor=none;fillColor=none;align=left;verticalAlign=middle;spacingLeft=4;spacingRight=4;overflow=hidden;rotatable=0;points=[[0,0.5],[1,0.5]];portConstraint=eastwest;fontColor=#5E5E5E;" vertex="1" parent="365">
                    <mxGeometry y="60" width="300" height="20" as="geometry"/>
                </mxCell>
                <mxCell id="368" value="- clients: Array&amp;lt;Socket&amp;gt; = [ ]" style="text;html=1;strokeColor=none;fillColor=none;align=left;verticalAlign=middle;spacingLeft=4;spacingRight=4;overflow=hidden;rotatable=0;points=[[0,0.5],[1,0.5]];portConstraint=eastwest;fontColor=#5E5E5E;" vertex="1" parent="365">
                    <mxGeometry y="80" width="300" height="20" as="geometry"/>
                </mxCell>
                <mxCell id="369" value="- nicknames: Array&amp;lt;String&amp;gt; = [ ]" style="text;html=1;strokeColor=none;fillColor=none;align=left;verticalAlign=middle;spacingLeft=4;spacingRight=4;overflow=hidden;rotatable=0;points=[[0,0.5],[1,0.5]];portConstraint=eastwest;fontColor=#5E5E5E;" vertex="1" parent="365">
                    <mxGeometry y="100" width="300" height="20" as="geometry"/>
                </mxCell>
                <mxCell id="370" value="" style="line;strokeWidth=1;fillColor=none;align=left;verticalAlign=middle;spacingTop=-1;spacingLeft=3;spacingRight=3;rotatable=0;labelPosition=right;points=[];portConstraint=eastwest;strokeColor=#5E5E5E;fontColor=#5E5E5E;" vertex="1" parent="365">
                    <mxGeometry y="120" width="300" height="8" as="geometry"/>
                </mxCell>
                <mxCell id="371" value="+ SocketServer( )" style="text;html=1;strokeColor=none;fillColor=none;align=left;verticalAlign=middle;spacingLeft=4;spacingRight=4;overflow=hidden;rotatable=0;points=[[0,0.5],[1,0.5]];portConstraint=eastwest;fontColor=#5E5E5E;" vertex="1" parent="365">
                    <mxGeometry y="128" width="300" height="20" as="geometry"/>
                </mxCell>
                <mxCell id="372" value="+ start(ip: String, port: int, max_connection: int): void" style="text;html=1;strokeColor=none;fillColor=none;align=left;verticalAlign=middle;spacingLeft=4;spacingRight=4;overflow=hidden;rotatable=0;points=[[0,0.5],[1,0.5]];portConstraint=eastwest;fontColor=#5E5E5E;" vertex="1" parent="365">
                    <mxGeometry y="148" width="300" height="20" as="geometry"/>
                </mxCell>
                <mxCell id="373" value="+ get_search_result(query: String): Array&amp;lt;jsonString&amp;gt;" style="text;html=1;strokeColor=none;fillColor=none;align=left;verticalAlign=middle;spacingLeft=4;spacingRight=4;overflow=hidden;rotatable=0;points=[[0,0.5],[1,0.5]];portConstraint=eastwest;fontColor=#5E5E5E;" vertex="1" parent="365">
                    <mxGeometry y="168" width="300" height="20" as="geometry"/>
                </mxCell>
                <mxCell id="374" value="- handle(client: Socket): void" style="text;html=1;strokeColor=none;fillColor=none;align=left;verticalAlign=middle;spacingLeft=4;spacingRight=4;overflow=hidden;rotatable=0;points=[[0,0.5],[1,0.5]];portConstraint=eastwest;fontColor=#5E5E5E;" vertex="1" parent="365">
                    <mxGeometry y="188" width="300" height="20" as="geometry"/>
                </mxCell>
                <mxCell id="375" value="- receive( ): void" style="text;html=1;strokeColor=none;fillColor=none;align=left;verticalAlign=middle;spacingLeft=4;spacingRight=4;overflow=hidden;rotatable=0;points=[[0,0.5],[1,0.5]];portConstraint=eastwest;fontColor=#5E5E5E;" vertex="1" parent="365">
                    <mxGeometry y="208" width="300" height="20" as="geometry"/>
                </mxCell>
                <mxCell id="310" value="&amp;lt;&amp;lt;interface&amp;gt;&amp;gt;&lt;br&gt;&lt;b&gt;SearchEngine&lt;/b&gt;" style="swimlane;fontStyle=0;align=center;verticalAlign=top;childLayout=stackLayout;horizontal=1;startSize=40;horizontalStack=0;resizeParent=1;resizeParentMax=0;resizeLast=0;collapsible=0;marginBottom=0;html=1;fillColor=#FFFFCC;fontColor=#5E5E5E;strokeColor=#0D0D0D;rounded=0;" parent="1" vertex="1">
                    <mxGeometry x="1010" y="-440" width="240" height="102.32" as="geometry"/>
                </mxCell>
                <mxCell id="312" value="" style="line;strokeWidth=1;fillColor=none;align=left;verticalAlign=middle;spacingTop=-1;spacingLeft=3;spacingRight=3;rotatable=0;labelPosition=right;points=[];portConstraint=eastwest;strokeColor=#0D0D0D;fontColor=#5E5E5E;" parent="310" vertex="1">
                    <mxGeometry y="40" width="240" height="7.68" as="geometry"/>
                </mxCell>
                <mxCell id="313" value="~ verbose(mode: int): void" style="text;html=1;strokeColor=none;fillColor=none;align=left;verticalAlign=middle;spacingLeft=4;spacingRight=4;overflow=hidden;rotatable=0;points=[[0,0.5],[1,0.5]];portConstraint=eastwest;rounded=0;fontColor=#5E5E5E;" parent="310" vertex="1">
                    <mxGeometry y="47.68" width="240" height="19.2" as="geometry"/>
                </mxCell>
                <mxCell id="314" value="+ search(query: String, top_k: int, &lt;br&gt;verbose: int): Array&amp;lt;Hashtable&amp;gt;&amp;nbsp;" style="text;html=1;strokeColor=none;fillColor=none;align=left;verticalAlign=middle;spacingLeft=4;spacingRight=4;overflow=hidden;rotatable=0;points=[[0,0.5],[1,0.5]];portConstraint=eastwest;rounded=0;fontColor=#5E5E5E;" parent="310" vertex="1">
                    <mxGeometry y="66.88" width="240" height="35.44" as="geometry"/>
                </mxCell>
                <mxCell id="390" value="&lt;b&gt;SearchEngine1&lt;/b&gt;" style="rounded=0;whiteSpace=wrap;html=1;labelBorderColor=none;fillColor=#FFFFCC;gradientColor=none;fontColor=#0D0D0D;glass=0;shadow=0;strokeColor=#0D0D0D;" vertex="1" parent="1">
                    <mxGeometry x="950" y="-270" width="100" height="30" as="geometry"/>
                </mxCell>
                <mxCell id="391" value="&lt;b&gt;SearchEngine2&lt;/b&gt;" style="rounded=0;whiteSpace=wrap;html=1;labelBorderColor=none;fillColor=#FFFFCC;gradientColor=none;fontColor=#0D0D0D;glass=0;shadow=0;strokeColor=#0D0D0D;" vertex="1" parent="1">
                    <mxGeometry x="1080" y="-270" width="100" height="30" as="geometry"/>
                </mxCell>
                <mxCell id="392" value="&lt;b&gt;SearchEngine3&lt;/b&gt;" style="rounded=0;whiteSpace=wrap;html=1;labelBorderColor=none;fillColor=#FFFFCC;gradientColor=none;fontColor=#0D0D0D;glass=0;shadow=0;strokeColor=#0D0D0D;" vertex="1" parent="1">
                    <mxGeometry x="1200" y="-270" width="100" height="30" as="geometry"/>
                </mxCell>
                <mxCell id="396" value="" style="endArrow=block;startArrow=none;endFill=0;startFill=0;endSize=8;html=1;verticalAlign=bottom;dashed=1;labelBackgroundColor=none;dashPattern=10 10;fontColor=#0D0D0D;strokeColor=#0D0D0D;rounded=0;exitX=0.5;exitY=0;exitDx=0;exitDy=0;" edge="1" parent="1" source="392" target="314">
                    <mxGeometry x="0.2979" y="-22" width="160" relative="1" as="geometry">
                        <mxPoint x="1114.2202779207412" y="-310.0000000000001" as="sourcePoint"/>
                        <mxPoint x="1010" y="-250" as="targetPoint"/>
                        <mxPoint as="offset"/>
                    </mxGeometry>
                </mxCell>
                <mxCell id="397" value="" style="endArrow=block;startArrow=none;endFill=0;startFill=0;endSize=8;html=1;verticalAlign=bottom;dashed=1;labelBackgroundColor=none;dashPattern=10 10;fontColor=#0D0D0D;strokeColor=#0D0D0D;rounded=0;" edge="1" parent="1" source="391" target="314">
                    <mxGeometry x="0.2979" y="-22" width="160" relative="1" as="geometry">
                        <mxPoint x="1259.9999999999998" y="-260" as="sourcePoint"/>
                        <mxPoint x="1167.3597529593412" y="-320" as="targetPoint"/>
                        <mxPoint as="offset"/>
                    </mxGeometry>
                </mxCell>
                <mxCell id="398" value="" style="endArrow=block;startArrow=none;endFill=0;startFill=0;endSize=8;html=1;verticalAlign=bottom;dashed=1;labelBackgroundColor=none;dashPattern=10 10;fontColor=#0D0D0D;strokeColor=#0D0D0D;rounded=0;exitX=0.5;exitY=0;exitDx=0;exitDy=0;" edge="1" parent="1" source="390" target="314">
                    <mxGeometry x="0.2979" y="-22" width="160" relative="1" as="geometry">
                        <mxPoint x="1140.0000000000002" y="-260" as="sourcePoint"/>
                        <mxPoint x="1139.9999999999998" y="-320" as="targetPoint"/>
                        <mxPoint as="offset"/>
                    </mxGeometry>
                </mxCell>
                <mxCell id="401" value="" style="endArrow=open;startArrow=diamondThin;endFill=0;startFill=0;html=1;verticalAlign=bottom;labelBackgroundColor=none;strokeWidth=1;startSize=8;endSize=8;rounded=0;strokeColor=#0D0D0D;fontColor=#0D0D0D;entryX=0.5;entryY=0;entryDx=0;entryDy=0;" edge="1" parent="1" source="375" target="310">
                    <mxGeometry width="160" relative="1" as="geometry">
                        <mxPoint x="1020" y="-460" as="sourcePoint"/>
                        <mxPoint x="1180" y="-460" as="targetPoint"/>
                    </mxGeometry>
                </mxCell>
            </root>
        </mxGraphModel>
    </diagram>
</mxfile>